<?xml version="1.0" encoding="UTF-8" standalone="no"?>
<!-- Created with Inkscape (http://www.inkscape.org/) -->

<svg
   xmlns:dc="http://purl.org/dc/elements/1.1/"
   xmlns:cc="http://creativecommons.org/ns#"
   xmlns:rdf="http://www.w3.org/1999/02/22-rdf-syntax-ns#"
   xmlns:svg="http://www.w3.org/2000/svg"
   xmlns="http://www.w3.org/2000/svg"
   xmlns:sodipodi="http://sodipodi.sourceforge.net/DTD/sodipodi-0.dtd"
   xmlns:inkscape="http://www.inkscape.org/namespaces/inkscape"
   width="243.34375"
   height="230.32098"
   id="svg2"
   version="1.1"
   inkscape:version="0.48.4 r9939"
   sodipodi:docname="Neues Dokument 1">
  <defs
     id="defs4" />
  <sodipodi:namedview
     id="base"
     pagecolor="#ffffff"
     bordercolor="#666666"
     borderopacity="1.0"
     inkscape:pageopacity="0.0"
     inkscape:pageshadow="2"
     inkscape:zoom="0.98994949"
     inkscape:cx="136.14726"
     inkscape:cy="98.603969"
     inkscape:document-units="px"
     inkscape:current-layer="layer1"
     showgrid="false"
     inkscape:object-nodes="true"
     fit-margin-top="0"
     fit-margin-left="0"
     fit-margin-right="0"
     fit-margin-bottom="0"
     inkscape:window-width="1680"
     inkscape:window-height="995"
     inkscape:window-x="-2"
     inkscape:window-y="-3"
     inkscape:window-maximized="1" />
  <metadata
     id="metadata7">
    <rdf:RDF>
      <cc:Work
         rdf:about="">
        <dc:format>image/svg+xml</dc:format>
        <dc:type
           rdf:resource="http://purl.org/dc/dcmitype/StillImage" />
        <dc:title></dc:title>
      </cc:Work>
    </rdf:RDF>
  </metadata>
  <g
     inkscape:label="Ebene 1"
     inkscape:groupmode="layer"
     id="layer1"
     transform="translate(-90.46875,-400.875)">
    <g
       id="g3775">
      <path
         sodipodi:nodetypes="csssscc"
         inkscape:connector-curvature="0"
         id="rect2985"
         d="m 119.19799,519.00168 13.16566,0 c 11.73347,0 21.17954,9.44607 21.17954,21.17953 l 0,69.83523 c 0,11.73347 -9.44607,21.17954 -21.17954,21.17954 l -13.16566,0 z"
         style="fill:#000000;fill-opacity:1;fill-rule:nonzero;stroke:none" />
      <path
         style="fill:#000000;fill-opacity:1;fill-rule:nonzero;stroke:none"
         d="m 302.03561,519.00168 -13.16566,0 c -11.73347,0 -21.17954,9.44607 -21.17954,21.17953 l 0,69.83523 c 0,11.73347 9.44607,21.17954 21.17954,21.17954 l 13.16566,0 z"
         id="use3756"
         inkscape:connector-curvature="0"
         sodipodi:nodetypes="csssscc" />
      <path
         sodipodi:nodetypes="cssccsssssccsscsc"
         inkscape:connector-curvature="0"
         id="path3758"
         d="m 202.59375,401.125 c -48.25813,2.26708 -78.24724,21.9062 -93.8125,52.625 -16.567365,32.69651 -18.3125,75.64641 -18.3125,123.84375 l 0,9.53125 19.09375,0 0,-9.53125 c 0,-47.61624 2.59935,-88.27853 16.25,-115.21875 13.65065,-26.94022 36.81912,-42.40625 86.3125,-42.40625 49.49338,0 72.66185,15.46603 86.3125,42.40625 13.65065,26.94022 16.28125,67.60251 16.28125,115.21875 l 0,9.53125 19.09375,0 0,-9.53125 c 0,-48.19734 -1.77638,-91.14724 -18.34375,-123.84375 -15.56193,-30.71222 -45.54129,-50.35095 -93.78125,-52.625 0,0 -6.37391,-0.25014 -9.5625,-0.25 -3.17818,1.4e-4 -9.53125,0.25 -9.53125,0.25 z"
         style="font-size:medium;font-style:normal;font-variant:normal;font-weight:normal;font-stretch:normal;text-indent:0;text-align:start;text-decoration:none;line-height:normal;letter-spacing:normal;word-spacing:normal;text-transform:none;direction:ltr;block-progression:tb;writing-mode:lr-tb;text-anchor:start;baseline-shift:baseline;color:#000000;fill:#000000;fill-opacity:1;stroke:none;stroke-width:19.10000038;marker:none;visibility:visible;display:inline;overflow:visible;enable-background:accumulate;font-family:Sans;-inkscape-font-specification:Sans" />
    </g>
  </g>
</svg>
