<?xml version="1.0" encoding="UTF-8" standalone="no"?>
<!-- Created with Inkscape (http://www.inkscape.org/) -->

<svg
   xmlns:dc="http://purl.org/dc/elements/1.1/"
   xmlns:cc="http://creativecommons.org/ns#"
   xmlns:rdf="http://www.w3.org/1999/02/22-rdf-syntax-ns#"
   xmlns:svg="http://www.w3.org/2000/svg"
   xmlns="http://www.w3.org/2000/svg"
   xmlns:inkscape="http://www.inkscape.org/namespaces/inkscape"
   version="1.1"
   width="100"
   height="100"
   viewBox="0 0 100 100"
   id="Layer_1"
   xml:space="preserve"><metadata
     id="metadata21"><rdf:RDF><cc:Work
         rdf:about=""><dc:format>image/svg+xml</dc:format><dc:type
           rdf:resource="http://purl.org/dc/dcmitype/StillImage" /><dc:title></dc:title></cc:Work></rdf:RDF></metadata><defs
     id="defs19"><inkscape:path-effect
       effect="skeletal"
       id="path-effect3849" /></defs><path
     d="m 80.862698,20.154124 c -0.249492,-0.0045 -0.50305,0.05738 -0.75,0.15625 l -5.9375,2.375 c -0.648032,0.259462 -1.08132,0.829436 -1.1875,1.46875 -0.887731,-0.249218 -1.812375,-0.482842 -2.78125,-0.65625 -4.626211,-0.827993 -10.100928,-0.160932 -16.15625,0.21875 -1.101432,0.06907 -2.194702,0.597238 -4.21875,1.78125 l 7.84375,0.5 c 1.554706,0.09719 1.406149,2.790119 -1.8125,2.625 l -20.71875,-1.0625 c -1.007522,0.173309 -2.415569,0.444276 -3.46875,1.03125 l -23.8437496,16.0625 c -1.8847168,1.270278 -2.3640314,3.802781 -1.09375,5.6875 1.2702822,1.884708 3.8027826,2.395278 5.6874996,1.125 l 19.84375,-13.34375 c 0,0 13.287027,1.019815 16.78125,1.53125 4.631033,0.677817 9.822138,3.502381 11.71875,7.78125 1.896295,4.278164 2.10348,8.906394 -2.125,13.875 l -18.5,10.875 c -1.958532,1.15322 -2.590727,3.666464 -1.4375,5.625 1.153226,1.958525 3.635218,2.621969 5.59375,1.46875 0,0 16.732341,-9.459339 24.8125,-14.625 2.355119,-1.505632 3.930163,-2.213875 7.875,-4.09375 3.338768,-1.591058 5.933712,-3.919828 7.8125,-6.65625 0.526336,0.474095 1.295612,0.625776 2,0.34375 l 5.96875,-2.375 c 0.987801,-0.3955 1.458,-1.512199 1.0625,-2.5 l -11.21875,-28 c -0.296625,-0.740851 -1.001523,-1.205189 -1.75,-1.21875 z m -46.84375,21.40625 -16.15625,10.84375 c -0.621013,0.41855 -1.336034,0.630355 -2.03125,0.71875 1.30116,1.760793 3.759638,2.204919 5.59375,0.96875 l 16.3125,-10.90625 1.90625,-0.9375 c -1.352974,-0.555553 -0.308053,-0.335086 -2.53125,-0.65625 l -3.09375,-0.03125 z m 7.96875,0.96875 -4.40625,10.1875 c -0.498746,1.577247 0.361322,3.264338 1.9375,3.75 1.576178,0.485653 3.251253,-0.422753 3.75,-2 l 4.78125,-11.34375 -6.0625,-0.59375 z"
     id="path4106"
     style="fill:#000000;fill-opacity:1;fill-rule:nonzero;stroke:none" /></svg>