<?xml version="1.0" encoding="iso-8859-1"?>
<!-- Generator: Adobe Illustrator 18.0.0, SVG Export Plug-In . SVG Version: 6.00 Build 0)  -->
<!DOCTYPE svg PUBLIC "-//W3C//DTD SVG 1.1//EN" "http://www.w3.org/Graphics/SVG/1.1/DTD/svg11.dtd">
<svg version="1.1" id="Capa_1" xmlns="http://www.w3.org/2000/svg" xmlns:xlink="http://www.w3.org/1999/xlink" x="0px" y="0px"
	 viewBox="0 0 63.562 95.764" style="enable-background:new 0 0 63.562 95.764;" xml:space="preserve">
<g>
	<path d="M63.468,33.562L30.047,0.094L29.953,0H24.89H5.672C4.078,0,2.719,0.562,1.641,1.641C0.562,2.719,0,4.078,0,5.625v84.514
		c0,3.188,2.484,5.625,5.672,5.625H57.89c3.187,0,5.672-2.437,5.672-5.625V38.765v-5.203H63.468z M30.047,7.453l26.109,26.109
		h-25.64c-0.328,0-0.469-0.188-0.469-0.562V7.453z M58.359,90.139c0,0.328-0.141,0.469-0.469,0.469H5.672
		c-0.328,0-0.469-0.141-0.469-0.469V5.625c0-0.328,0.141-0.469,0.469-0.469H24.89V33c0,3.188,2.438,5.766,5.625,5.766h27.843V90.139
		z"/>
	<path d="M18.234,49.921c0,1.453,1.172,2.672,2.625,2.672h31.078c1.453,0,2.578-1.219,2.578-2.672c0-1.359-1.125-2.625-2.578-2.625
		H20.859C19.406,47.296,18.234,48.562,18.234,49.921z"/>
	<path d="M51.937,59.765H20.859c-1.453,0-2.625,1.172-2.625,2.625c0,1.453,1.172,2.578,2.625,2.578h31.078
		c1.453,0,2.578-1.125,2.578-2.578C54.515,60.937,53.39,59.765,51.937,59.765z"/>
	<path d="M51.937,72.187H20.859c-1.453,0-2.625,1.125-2.625,2.578c0,1.453,1.172,2.578,2.625,2.578h31.078
		c1.453,0,2.578-1.125,2.578-2.578C54.515,73.312,53.39,72.187,51.937,72.187z"/>
	<rect x="9.047" y="47.296" width="5.156" height="5.297"/>
	<rect x="9.047" y="59.765" width="5.156" height="5.203"/>
	<rect x="9.047" y="72.186" width="5.156" height="5.156"/>
</g>
<g>
</g>
<g>
</g>
<g>
</g>
<g>
</g>
<g>
</g>
<g>
</g>
<g>
</g>
<g>
</g>
<g>
</g>
<g>
</g>
<g>
</g>
<g>
</g>
<g>
</g>
<g>
</g>
<g>
</g>
</svg>
