<?xml version="1.0" encoding="UTF-8" standalone="no"?>
<!-- Created with Inkscape (http://www.inkscape.org/) -->

<svg
   xmlns:dc="http://purl.org/dc/elements/1.1/"
   xmlns:cc="http://creativecommons.org/ns#"
   xmlns:rdf="http://www.w3.org/1999/02/22-rdf-syntax-ns#"
   xmlns:svg="http://www.w3.org/2000/svg"
   xmlns="http://www.w3.org/2000/svg"
   version="1.1"
   width="100%"
   height="100%"
   viewBox="0 0 800 800"
   id="Artwork"
   xml:space="preserve"><metadata
     id="metadata17"><rdf:RDF><cc:Work
         rdf:about=""><dc:format>image/svg+xml</dc:format><dc:type
           rdf:resource="http://purl.org/dc/dcmitype/StillImage" /><dc:title></dc:title></cc:Work></rdf:RDF></metadata><defs
     id="defs15" /><path
     d="m 732.04408,610.16431 0,-34.44528 c 0,-16.89173 1.24418,-30.60096 -29.94592,-30.60096 l -597.98319,0 c -31.417773,0 -36.169845,13.83163 -36.169845,30.60096 l 0,34.44528 c 0,16.89173 4.979743,30.60096 36.169845,30.60096 l 597.98319,0 c 31.41778,0 29.94592,-13.70923 29.94592,-30.60096 z m 0,-192.94166 0,-34.44527 c 0,-16.89174 1.24418,-30.60097 -29.94592,-30.60097 l -597.98319,0 c -31.417773,0 -36.169845,13.83164 -36.169845,30.60097 l 0,34.44527 c 0,16.89173 4.979743,30.60096 36.169845,30.60096 l 597.98319,0 c 31.41778,0 29.94592,-13.70923 29.94592,-30.60096 z m 0,-192.94168 0,-34.44528 c 0,-16.89173 1.24418,-30.60096 -29.94592,-30.60096 l -597.98319,0 c -31.417773,0 -36.169845,13.83164 -36.169845,30.60096 l 0,34.44528 c 0,16.89173 4.979743,30.60096 36.169845,30.60096 l 597.98319,0 c 31.41778,0 29.94592,-13.70923 29.94592,-30.60096 z"
     id="use3003" /></svg>