<?xml version="1.0" encoding="iso-8859-1"?>
<!-- Generator: Adobe Illustrator 18.0.0, SVG Export Plug-In . SVG Version: 6.00 Build 0)  -->
<!DOCTYPE svg PUBLIC "-//W3C//DTD SVG 1.1//EN" "http://www.w3.org/Graphics/SVG/1.1/DTD/svg11.dtd">
<svg version="1.1" id="Capa_1" xmlns="http://www.w3.org/2000/svg" xmlns:xlink="http://www.w3.org/1999/xlink" x="0px" y="0px"
	 viewBox="0 0 84.984 84.936" style="enable-background:new 0 0 84.984 84.936;" xml:space="preserve">
<g>
	<path d="M81.234,30.796l-2.625-0.375l-3.235-0.281l-0.89-2.203l2.109-2.484l1.547-2.11c0.577-0.786,0.844-1.64,0.844-2.625
		c0-0.14,0-0.234-0.047-0.375c-0.047-1.125-0.514-2.014-1.266-2.765L67.406,7.312C66.654,6.561,65.769,6,64.64,6h-0.422
		c-0.984,0-1.844,0.259-2.578,0.797l-2.109,1.547l-2.485,2.109l-2.25-0.844l-0.281-3.281L54.14,3.75C53.841,1.696,51.843,0,49.734,0
		H35.25c-2.11,0-4.154,1.696-4.453,3.75l-0.375,2.578L30.14,9.609l-2.203,0.844l-2.484-2.109l-2.109-1.547
		C22.641,6.281,21.797,6,20.859,6h-0.422c-1.128,0-2.062,0.515-2.859,1.312L7.313,17.578c-0.703,0.703-1.125,1.64-1.219,2.765
		c-0.047,0.188-0.047,0.375-0.047,0.516c0,0.891,0.212,1.75,0.75,2.484l1.547,2.11l2.203,2.484
		c-0.328,0.609-0.609,1.313-0.938,2.203l-3.281,0.281L3.75,30.796C1.742,31.088,0,33.14,0,35.249v14.485
		c0,2.109,1.729,4.112,3.75,4.406l2.578,0.375l3.281,0.281c0.375,0.984,0.704,1.734,0.938,2.25L8.344,59.53l-1.547,2.11
		c-0.516,0.703-0.75,1.5-0.75,2.39c0,0.141,0,0.328,0.047,0.516c0.094,1.125,0.467,2.108,1.219,2.859l10.265,10.266
		c0.774,0.774,1.731,1.265,2.859,1.265h0.422c0.938,0,1.782-0.281,2.485-0.796l2.109-1.547l2.484-2.203
		c0.844,0.421,1.594,0.75,2.203,0.984l0.282,3.234l0.375,2.625c0.287,2.009,2.343,3.703,4.453,3.703h14.484
		c2.109,0,4.119-1.694,4.406-3.703l0.375-2.625l0.281-3.234c0.75-0.281,1.5-0.609,2.25-0.984l2.485,2.203l2.109,1.547
		c0.734,0.538,1.594,0.75,2.531,0.75h0.469c1.129,0,2.062-0.516,2.766-1.219l10.265-10.266c0.797-0.797,1.219-1.734,1.266-2.859
		c0.047-0.141,0.047-0.234,0.047-0.375c0-0.984-0.312-1.805-0.844-2.531l-1.547-2.11l-2.109-2.484l0.89-2.25l3.235-0.281
		l2.625-0.375c2.055-0.294,3.75-2.297,3.75-4.406V35.249C84.984,33.14,83.289,31.09,81.234,30.796z M80.343,49.64l-2.391,0.375
		l-1.171,0.094l-4.875,0.375c-0.188,0.984-0.507,1.905-0.844,2.718c-0.044,0.142-0.27,0.755-0.797,1.922
		c-0.129,0.287-0.516,1.125-1.219,2.485l3.047,3.75l0.75,0.843l1.453,2.016L64.218,74.296l-1.922-1.453l-0.937-0.75l-3.75-3.188
		c-0.938,0.61-1.779,1.036-2.484,1.36c-0.42,0.192-1.688,0.656-1.922,0.797l-2.719,0.843l-0.375,4.781l-0.094,1.266l-0.375,2.391
		H35.344l-0.375-2.391l-0.141-1.266l-0.375-4.781l-2.672-0.843l-1.922-0.797c-0.717-0.298-1.547-0.75-2.484-1.36l-3.75,3.188
		l-0.891,0.75l-2.015,1.453L10.641,64.218l1.453-2.016l0.75-0.843l3.187-3.75c-0.609-0.938-1.077-1.762-1.359-2.485l-0.75-1.922
		l-0.844-2.718L8.25,50.109l-1.219-0.094L4.594,49.64V35.343l2.437-0.422l1.219-0.093l4.828-0.375l0.844-2.672l0.75-1.922
		c0.282-0.723,0.75-1.547,1.359-2.484l-3.187-3.75l-0.75-0.985l-1.453-1.922L20.719,10.64l2.015,1.454l0.891,0.75l3.75,3.093
		l1.031-0.562c0.608-0.332,1.127-0.558,1.453-0.703c0.94-0.418,1.597-0.648,1.922-0.75c0.86-0.336,1.734-0.657,2.672-0.844
		l0.375-4.922l0.141-1.125l0.375-2.437H49.64l0.375,2.437l0.094,1.125l0.375,4.922c0.984,0.187,1.898,0.523,2.719,0.844
		c0.652,0.202,1.303,0.44,1.922,0.75l1.406,0.703l1.078,0.562l3.75-3.093l0.937-0.75l1.922-1.454l10.078,10.078l-1.453,1.922
		l-0.75,0.985l-3.047,3.75c0.703,1.359,1.083,2.2,1.219,2.484c0.38,0.794,0.636,1.412,0.797,1.922
		c0.353,0.853,0.656,1.734,0.844,2.672l4.875,0.375l1.171,0.093l2.391,0.422V49.64z"/>
	<path d="M42.515,27.937c-4.031,0-7.441,1.418-10.265,4.266c-2.801,2.824-4.219,6.234-4.219,10.218
		c0,4.031,1.406,7.453,4.219,10.266c2.812,2.812,6.234,4.218,10.265,4.218c3.985,0,7.406-1.406,10.266-4.218
		c2.859-2.813,4.265-6.235,4.265-10.266c0-3.984-1.406-7.359-4.265-10.218C49.921,29.343,46.5,27.937,42.515,27.937z M49.453,49.499
		c-1.922,1.922-4.266,2.907-6.938,2.907c-2.765,0-5.132-0.961-7.078-2.907c-1.945-1.945-2.906-4.312-2.906-7.078
		c0-2.672,0.984-5.015,2.906-6.937c1.969-1.969,4.313-2.953,7.078-2.953c2.672,0,4.992,1.007,6.938,2.953
		c1.945,1.945,2.953,4.265,2.953,6.937C52.406,45.187,51.421,47.531,49.453,49.499z"/>
</g>
<g>
</g>
<g>
</g>
<g>
</g>
<g>
</g>
<g>
</g>
<g>
</g>
<g>
</g>
<g>
</g>
<g>
</g>
<g>
</g>
<g>
</g>
<g>
</g>
<g>
</g>
<g>
</g>
<g>
</g>
</svg>
