<?xml version="1.0" encoding="UTF-8" standalone="no"?>
<!-- Created with Inkscape (http://www.inkscape.org/) -->

<svg
   xmlns:dc="http://purl.org/dc/elements/1.1/"
   xmlns:cc="http://creativecommons.org/ns#"
   xmlns:rdf="http://www.w3.org/1999/02/22-rdf-syntax-ns#"
   xmlns:svg="http://www.w3.org/2000/svg"
   xmlns="http://www.w3.org/2000/svg"
   xmlns:xlink="http://www.w3.org/1999/xlink"
   version="1.1"
   width="126.03125"
   height="181.59375"
   id="svg9439">
  <defs
     id="defs9441" />
  <metadata
     id="metadata9444">
    <rdf:RDF>
      <cc:Work
         rdf:about="">
        <dc:format>image/svg+xml</dc:format>
        <dc:type
           rdf:resource="http://purl.org/dc/dcmitype/StillImage" />
        <dc:title></dc:title>
      </cc:Work>
    </rdf:RDF>
  </metadata>
  <g
     transform="translate(-292.69567,-397.28557)"
     id="layer1">
    <g
       id="g9539">
      <path
         d="m 1459.4342,-322.69085 c 72.1473,0 130.3655,58.21818 130.3655,130.36546 l 0,1317.50599 c 0,72.1473 -58.2182,130.3654 -130.3655,130.3654 l -834.33894,0 c -72.14728,0 -130.36546,-58.2181 -130.36546,-130.3654 l 0,-1317.50599 c 0,-72.14728 58.21818,-130.36546 130.36546,-130.36546 z"
         transform="matrix(-0.11506115,0,0,0.11506115,475.64293,434.41043)"
         id="path9481"
         style="fill:#ffffff;stroke:none" />
      <path
         d="m 15.03125,0 c -8.30135,0 -15,6.69865 -15,15 l 0,151.59375 c 0,8.30136 6.69865,15 15,15 l 96,0 c 8.30135,0 15,-6.69864 15,-15 l 0,-151.59375 c 0,-8.30135 -6.69865,-15 -15,-15 l -96,0 z m 0,1 96,0 c 7.76465,0 14,6.23535 14,14 l 0,151.59375 c 0,7.76465 -6.23535,14 -14,14 l -96,0 c -7.76465,0 -14,-6.23535 -14,-14 L 1.03125,15 c 0,-7.76465 6.23535,-14 14,-14 z M 19.75,4.34375 c -8.1893,0 -14.8125,6.6232 -14.8125,14.8125 l 0,143.28125 c 0,8.1893 6.6232,14.8125 14.8125,14.8125 l 86.5625,0 c 8.1893,0 14.8125,-6.6232 14.8125,-14.8125 l 0,-143.28125 c 0,-8.1893 -6.6232,-14.8125 -14.8125,-14.8125 l -86.5625,0 z m 0,2.21875 86.5625,0 c 6.99352,0 12.59375,5.60023 12.59375,12.59375 l 0,143.28125 c 0,6.99352 -5.60023,12.59375 -12.59375,12.59375 l -86.5625,0 c -6.99352,0 -12.59375,-5.60023 -12.59375,-12.59375 l 0,-143.28125 C 7.15625,12.16273 12.75648,6.5625 19.75,6.5625 z"
         transform="translate(292.69567,397.28557)"
         id="path9520"
         style="fill:#000000;stroke:none" />
    </g>
    <use
       transform="matrix(-1,0,0,1,726.82488,-334.02301)"
       id="use9602"
       x="0"
       y="0"
       width="744.09448"
       height="1052.3622"
       xlink:href="#rect4598-1" />
    <use
       transform="translate(-7.3828924,-334.02301)"
       id="use9606"
       x="0"
       y="0"
       width="744.09448"
       height="1052.3622"
       xlink:href="#path4621-9" />
    <use
       transform="translate(-15.39642,-334.02301)"
       id="use9479"
       x="0"
       y="0"
       width="744.09448"
       height="1052.3622"
       xlink:href="#rect4598-1" />
    <use
       transform="matrix(-1,0,0,1,718.81135,-334.02301)"
       id="use9483"
       x="0"
       y="0"
       width="744.09448"
       height="1052.3622"
       xlink:href="#path4621-9" />
  </g>
</svg>
