<?xml version="1.0" encoding="UTF-8" standalone="no"?>
<!-- Generator: Adobe Illustrator 17.0.0, SVG Export Plug-In . SVG Version: 6.00 Build 0)  -->

<svg
   xmlns:dc="http://purl.org/dc/elements/1.1/"
   xmlns:cc="http://creativecommons.org/ns#"
   xmlns:rdf="http://www.w3.org/1999/02/22-rdf-syntax-ns#"
   xmlns:svg="http://www.w3.org/2000/svg"
   xmlns="http://www.w3.org/2000/svg"
   xmlns:sodipodi="http://sodipodi.sourceforge.net/DTD/sodipodi-0.dtd"
   xmlns:inkscape="http://www.inkscape.org/namespaces/inkscape"
   version="1.1"
   id="Layer_1"
   x="0px"
   y="0px"
   width="100px"
   height="100px"
   viewBox="0 0 100 100"
   enable-background="new 0 0 100 100"
   xml:space="preserve"
   inkscape:version="0.91 r"
   sodipodi:docname="fi-play.svg"><metadata
     id="metadata11"><rdf:RDF><cc:Work
         rdf:about=""><dc:format>image/svg+xml</dc:format><dc:type
           rdf:resource="http://purl.org/dc/dcmitype/StillImage" /><dc:title></dc:title></cc:Work></rdf:RDF></metadata><defs
     id="defs9"><filter
       inkscape:collect="always"
       style="color-interpolation-filters:sRGB"
       id="filter10156"
       x="-0.088671214"
       width="1.1773424"
       y="-0.077658007"
       height="1.155316"><feGaussianBlur
         inkscape:collect="always"
         stdDeviation="1.9937722"
         id="feGaussianBlur10158" /></filter></defs><sodipodi:namedview
     pagecolor="#494949"
     bordercolor="#666666"
     borderopacity="1"
     objecttolerance="10"
     gridtolerance="10"
     guidetolerance="10"
     inkscape:pageopacity="0"
     inkscape:pageshadow="2"
     inkscape:window-width="1680"
     inkscape:window-height="995"
     id="namedview7"
     showgrid="false"
     inkscape:zoom="5.6568543"
     inkscape:cx="50.745453"
     inkscape:cy="54.290505"
     inkscape:window-x="-2"
     inkscape:window-y="-3"
     inkscape:window-maximized="1"
     inkscape:current-layer="Layer_1" /><path
     style="fill:#000000;fill-opacity:0.7601246;filter:url(#filter10156)"
     sodipodi:nodetypes="sccssccccsccs"
     d="m 80.982,54 c 0,-0.847 -0.474,-1.575 -1.167,-1.957 L 30.541,23.595 c -0.363,-0.253 -0.803,-0.404 -1.279,-0.404 -1.239,0 -2.244,1.004 -2.244,2.243 0,0.087 0.016,0.169 0.026,0.253 l -0.026,0 0,57.131 0.026,0 c 0.127,1.119 1.066,1.99 2.218,1.99 0.409,0 0.787,-0.117 1.117,-0.308 L 79.855,55.935 C 80.526,55.547 80.982,54.83 80.982,54 Z"
     id="path10082"
     inkscape:connector-curvature="0" /><path
     inkscape:connector-curvature="0"
     id="path5"
     d="m 76.982,50 c 0,-0.847 -0.474,-1.575 -1.167,-1.957 L 26.541,19.595 c -0.363,-0.253 -0.803,-0.404 -1.279,-0.404 -1.239,0 -2.244,1.004 -2.244,2.243 0,0.087 0.016,0.169 0.026,0.253 l -0.026,0 0,57.131 0.026,0 c 0.127,1.119 1.066,1.99 2.218,1.99 0.409,0 0.787,-0.117 1.117,-0.308 L 75.855,51.935 C 76.526,51.547 76.982,50.83 76.982,50 Z"
     sodipodi:nodetypes="sccssccccsccs"
     style="fill:#ffffff;fill-opacity:1" /></svg>