<?xml version="1.0" encoding="UTF-8" standalone="no"?>
<!-- Created with Inkscape (http://www.inkscape.org/) -->

<svg
   xmlns:dc="http://purl.org/dc/elements/1.1/"
   xmlns:cc="http://creativecommons.org/ns#"
   xmlns:rdf="http://www.w3.org/1999/02/22-rdf-syntax-ns#"
   xmlns:svg="http://www.w3.org/2000/svg"
   xmlns="http://www.w3.org/2000/svg"
   xmlns:xlink="http://www.w3.org/1999/xlink"
   version="1.1"
   width="34.281536"
   height="45.314102"
   id="svg9439">
  <defs
     id="defs9441" />
  <metadata
     id="metadata9444">
    <rdf:RDF>
      <cc:Work
         rdf:about="">
        <dc:format>image/svg+xml</dc:format>
        <dc:type
           rdf:resource="http://purl.org/dc/dcmitype/StillImage" />
        <dc:title></dc:title>
      </cc:Work>
    </rdf:RDF>
  </metadata>
  <g
     transform="translate(-338.57053,-467.22156)"
     id="layer1">
    <use
       transform="matrix(-1,0,0,1,726.82488,-334.02301)"
       id="use9602"
       x="0"
       y="0"
       width="744.09448"
       height="1052.3622"
       xlink:href="#rect4598-1" />
    <use
       transform="translate(-7.3828924,-334.02301)"
       id="use9606"
       x="0"
       y="0"
       width="744.09448"
       height="1052.3622"
       xlink:href="#path4621-9" />
    <use
       transform="translate(-15.39642,-334.02301)"
       id="use9479"
       x="0"
       y="0"
       width="744.09448"
       height="1052.3622"
       xlink:href="#rect4598-1" />
    <use
       transform="matrix(-1,0,0,1,718.81135,-334.02301)"
       id="use9483"
       x="0"
       y="0"
       width="744.09448"
       height="1052.3622"
       xlink:href="#path4621-9" />
    <path
       d="m 355.66442,467.22312 a 1.2934245,1.2934245 0 0 0 -0.125,0.0312 1.2934245,1.2934245 0 0 0 -0.15625,0.0312 1.2934245,1.2934245 0 0 0 -0.3125,0.125 c -3.80064,1.04189 -7.83407,2.51838 -11,5.375 -3.25392,2.93602 -5.5,7.3118 -5.5,13.5 l 0,24.9375 a 1.2934245,1.2934245 0 0 0 1.3125,1.3125 l 15.84375,0 15.84375,0 a 1.2934245,1.2934245 0 0 0 1.28125,-1.3125 l 0,-24.9375 c 0,-6.1882 -2.24608,-10.56398 -5.5,-13.5 -3.18406,-2.87298 -7.21147,-4.36411 -11.03125,-5.40625 a 1.2934245,1.2934245 0 0 0 -0.125,-0.0625 c -0.0402,-0.0109 -0.0848,-0.0206 -0.125,-0.0312 a 1.2934245,1.2934245 0 0 0 -0.25,-0.0625 1.2934245,1.2934245 0 0 0 -0.0312,0 1.2934245,1.2934245 0 0 0 -0.125,0 z m -1.25,3.125 0,39.59375 -13.25,0 0,-23.65625 c 0,-5.58475 1.88863,-9.06528 4.65625,-11.5625 2.35179,-2.12203 5.44564,-3.40104 8.59375,-4.375 z m 2.59375,0 c 3.15504,0.97435 6.26827,2.24852 8.625,4.375 2.76761,2.49722 4.65625,5.97775 4.65625,11.5625 l 0,23.65625 -13.28125,0 0,-39.59375 z m -5.1875,22.09375 c -0.91976,0 -1.65625,0.73648 -1.65625,1.65625 0,0.91977 0.73649,1.6875 1.65625,1.6875 0.91977,0 1.65625,-0.76773 1.65625,-1.6875 0,-0.91977 -0.73648,-1.65625 -1.65625,-1.65625 z m 7.78125,0 c -0.91976,0 -1.65625,0.73648 -1.65625,1.65625 0,0.91977 0.73649,1.6875 1.65625,1.6875 0.91976,0 1.65625,-0.76773 1.65625,-1.6875 0,-0.91977 -0.73649,-1.65625 -1.65625,-1.65625 z"
       id="path9530"
       style="fill:#000000;stroke:none" />
  </g>
</svg>
