<?xml version="1.0" encoding="UTF-8" standalone="no"?>
<svg
   xmlns:dc="http://purl.org/dc/elements/1.1/"
   xmlns:cc="http://creativecommons.org/ns#"
   xmlns:rdf="http://www.w3.org/1999/02/22-rdf-syntax-ns#"
   xmlns:svg="http://www.w3.org/2000/svg"
   xmlns="http://www.w3.org/2000/svg"
   width="22.577778mm"
   height="22.577778mm"
   viewBox="0 0 80.000001 80"
   id="svg8707"
   version="1.1">
  <defs
     id="defs8709" />
  <metadata
     id="metadata8712">
    <rdf:RDF>
      <cc:Work
         rdf:about="">
        <dc:format>image/svg+xml</dc:format>
        <dc:type
           rdf:resource="http://purl.org/dc/dcmitype/StillImage" />
        <dc:title></dc:title>
      </cc:Work>
    </rdf:RDF>
  </metadata>
  <g
     style="fill:#000000;fill-opacity:1"
     id="layer1"
     transform="translate(-260.38794,-488.51022)">
    <g
       style="display:inline;fill:#000000;fill-opacity:1"
       id="g14685"
       transform="translate(261.09901,391.43526)">
      <path
         id="path14372"
         d="m 48.419922,111.67383 0,0.002 c -0.337614,0 -0.650355,0.0959 -0.921875,0.25391 l -0.01563,-0.0273 -18.277344,10.55078 0,0.0117 -6.914062,3.99219 -12.9335941,0 0,0.0352 c -0.010718,0 -0.021592,-0.004 -0.033203,-0.004 -0.752039,0 -1.3632813,0.61018 -1.3632813,1.36133 l 0,18.45312 c 0,0.75204 0.6112423,1.36133 1.3632813,1.36133 0.011611,0 0.021592,-0.003 0.033203,-0.004 l 0,0.0371 12.9335941,0 10.292968,5.9414 0,-0.0273 6.128907,3.53711 a 0.90008998,0.90008998 0 0 1 0.847656,-0.002 c 0.650743,0.34586 1.267377,0.60326 1.845703,0.77344 l 0.0078,0.002 c 0.580025,0.16372 1.124703,0.24023 1.636719,0.24023 0.514288,0 0.822778,-0.0992 0.935547,-0.16992 0.11655,-0.073 0.06836,0.009 0.06836,-0.11524 0,-0.1429 0.0043,-0.088 -0.0098,-0.0996 a 0.90008998,0.90008998 0 0 1 -0.0078,-0.006 c 0.03102,0.0262 -0.331383,-0.17294 -0.9375,-0.30664 l -1.08789,-0.23828 c -1.19757,-0.25661 -2.164863,-0.67584 -2.851563,-1.36914 a 0.90008998,0.90008998 0 0 1 -0.0039,-0.002 c -0.680978,-0.6942 -1.011719,-1.66073 -1.011719,-2.70313 0,-1.28259 0.465343,-2.44181 1.378907,-3.20312 0.914574,-0.76214 2.154841,-1.08984 3.607421,-1.08984 0.645852,-1e-5 1.305616,0.0527 1.976563,0.15039 0.674077,0.0933 1.368538,0.23443 2.080078,0.42382 a 0.90008998,0.90008998 0 0 1 0.667969,0.86914 l 0,2.31446 a 0.90008998,0.90008998 0 0 1 -1.267578,0.82226 c -0.555084,-0.24821 -1.088136,-0.43228 -1.59961,-0.55468 -0.512474,-0.12269 -0.983113,-0.17969 -1.410156,-0.17969 -0.592095,0 -0.958912,0.10675 -1.044922,0.15625 -0.06398,0.0368 -0.03594,0.0315 -0.02539,0.0644 0.04103,0.0199 0.303487,0.14574 0.779297,0.24414 l 0.0039,0.002 1.197265,0.24023 c 1.307792,0.26261 2.326414,0.65543 3.041016,1.34961 0.710274,0.69 1.042969,1.68369 1.042969,2.76953 0,1.38435 -0.454367,2.6087 -1.404297,3.39063 -0.281219,0.23113 -0.604343,0.40841 -0.947266,0.56054 l 1.144531,0.66211 c 0.300101,0.20722 0.662592,0.33203 1.054688,0.33203 0.597016,0 1.122668,-0.28759 1.460937,-0.72656 a 0.90008998,0.90008998 0 0 1 -0.626953,-0.85742 l 0,-10.9336 a 0.90008998,0.90008998 0 0 1 0.900391,-0.90039 l 0.115234,0 0,-35.74414 -0.02148,0 c -0.104499,-0.92085 -0.877805,-1.64062 -1.828125,-1.64062 z m 11.433594,3.42383 c -0.566263,0.0233 -1.124127,0.24505 -1.564454,0.66796 l -0.0039,-0.004 -0.03125,0.0312 c -8.93e-4,9e-4 -0.003,0.002 -0.0039,0.002 l 0,0.002 -2.8125,2.8125 c -8.93e-4,8.7e-4 -0.003,0.002 -0.0039,0.002 -8.93e-4,8.9e-4 -0.002,0.003 -0.002,0.004 l -0.201172,0.19922 0.02148,0.0215 c -0.690411,0.87887 -0.686872,2.11193 0.0098,2.98633 l -0.01953,0.0195 1.716796,1.71875 0.02734,-0.0274 c 0.02233,0.0232 0.03822,0.051 0.06055,0.0742 6.333383,6.33338 6.37052,16.60628 0.121094,22.99414 l -0.01367,-0.0117 -1.523438,1.52539 -0.002,0 -0.193359,0.19141 0.02148,0.0195 c -0.178381,0.22404 -0.308393,0.47282 -0.396484,0.73242 l 2.705078,0 a 0.90008998,0.90008998 0 0 1 0.849609,0.60938 0.90008998,0.90008998 0 0 1 0.84961,-0.60938 l 2.943359,0 a 0.90008998,0.90008998 0 0 1 0.744141,0.39453 l 1.416015,2.08204 c 8.4743,-9.86934 8.047072,-24.79778 -1.300781,-34.14649 l 0,-0.002 c -0.02322,-0.0232 -0.04904,-0.0363 -0.07227,-0.0586 l 0.0059,-0.008 -1.71875,-1.71679 -0.01953,0.0195 c -0.468908,-0.37334 -1.043113,-0.54873 -1.609375,-0.52539 z m -1.1875,35.27539 0,1.71679 a 0.90008998,0.90008998 0 0 1 -0.900391,0.90039 l -0.683594,0 0.236328,0.23633 0.160157,0 a 0.90008998,0.90008998 0 0 1 0.90039,0.90039 l 0,0.16016 0.271485,0.27148 0.01953,-0.0195 c 0.841247,0.66153 2.006732,0.67851 2.873047,0.0664 l -2.822266,-4.14063 a 0.90008998,0.90008998 0 0 1 -0.05469,-0.0918 z m -15.535157,0.28711 c -1.184137,0 -1.963401,0.26215 -2.455078,0.67187 -0.492685,0.41057 -0.730469,0.92517 -0.730469,1.82031 0,0.69588 0.171214,1.11022 0.496094,1.44141 0.329492,0.3314 0.961308,0.6594 1.949219,0.87109 a 0.90008998,0.90008998 0 0 1 0.0039,0.002 l 1.091797,0.24023 c 0.719594,0.15873 1.235851,0.29331 1.705078,0.6875 0.432934,0.35977 0.664063,0.94322 0.664063,1.48242 0,0.63779 -0.374359,1.30158 -0.91211,1.63867 -0.411714,0.2581 -0.878242,0.38108 -1.392578,0.42579 l 0.394531,0.22851 c 0.99051,-0.0747 1.680173,-0.31159 2.078126,-0.63867 0.485614,-0.39972 0.748046,-0.97225 0.748046,-2 0,-0.7501 -0.18098,-1.17044 -0.496093,-1.47656 -0.31079,-0.30191 -1.018727,-0.65128 -2.142579,-0.87696 l -1.201171,-0.24218 a 0.90008998,0.90008998 0 0 1 -0.0039,-0.002 c -0.628873,-0.12899 -1.101011,-0.25246 -1.537109,-0.57226 a 0.90008998,0.90008998 0 0 1 -0.01953,-0.0137 c -0.416174,-0.3216 -0.671875,-0.88743 -0.671875,-1.40039 0,-0.63963 0.376109,-1.32243 0.935547,-1.64454 0.558524,-0.32153 1.187798,-0.39843 1.943359,-0.39843 0.588583,0 1.198019,0.0797 1.828125,0.23047 0.213507,0.0511 0.433223,0.15565 0.648438,0.22265 l 0,-0.32226 c -0.402678,-0.0893 -0.811596,-0.19124 -1.19336,-0.24414 a 0.90008998,0.90008998 0 0 1 -0.0078,0 c -0.595852,-0.0871 -1.169874,-0.13086 -1.722657,-0.13086 z m 12.035157,0.19922 c 0.05361,0.11337 0.113094,0.22443 0.185546,0.33007 l 1.513672,0 0,-0.33007 -1.699218,0 z m 6,0 1.701172,2.49804 0.453124,-0.45312 -1.388671,-2.04492 -0.765625,0 z"
         style="fill:#000000;fill-opacity:1" />
      <text
         id="text14380"
         y="160.89355"
         x="54.285717"
         style="font-style:normal;font-variant:normal;font-weight:bold;font-stretch:normal;font-size:15px;font-family:Sans;-inkscape-font-specification:'Sans Bold';text-align:center;writing-mode:lr-tb;text-anchor:middle;opacity:1;fill:#000000;fill-opacity:1;fill-rule:nonzero;stroke:none;stroke-width:1.79999995;stroke-linecap:round;stroke-linejoin:round;stroke-miterlimit:4;stroke-dasharray:none;stroke-dashoffset:0;stroke-opacity:1"
         xml:space="preserve"><tspan
           style="fill:#000000;fill-opacity:1"
           y="160.89355"
           x="54.285717"
           id="tspan14382">SFX</tspan></text>
    </g>
  </g>
</svg>
