<?xml version="1.0" encoding="UTF-8" standalone="no"?>
<svg
   xmlns:dc="http://purl.org/dc/elements/1.1/"
   xmlns:cc="http://creativecommons.org/ns#"
   xmlns:rdf="http://www.w3.org/1999/02/22-rdf-syntax-ns#"
   xmlns:svg="http://www.w3.org/2000/svg"
   xmlns="http://www.w3.org/2000/svg"
   width="22.577778mm"
   height="22.577778mm"
   viewBox="0 0 80.000001 80"
   id="svg8707"
   version="1.1">
  <defs
     id="defs8709" />
  <metadata
     id="metadata8712">
    <rdf:RDF>
      <cc:Work
         rdf:about="">
        <dc:format>image/svg+xml</dc:format>
        <dc:type
           rdf:resource="http://purl.org/dc/dcmitype/StillImage" />
        <dc:title></dc:title>
      </cc:Work>
    </rdf:RDF>
  </metadata>
  <g
     style="fill:#000000;fill-opacity:1"
     id="layer1"
     transform="translate(-260.38794,-488.51022)">
    <g
       id="g14336"
       transform="matrix(0.89315795,0,0,0.89315795,255.73017,483.852)"
       style="display:inline;fill:#000000;fill-opacity:1">
      <path
         id="path14338"
         d="m 78.864,17.021 c -0.026,-0.026 -0.056,-0.042 -0.082,-0.067 l 0.008,-0.008 -1.924,-1.923 -0.022,0.022 c -1.05,-0.836 -2.567,-0.788 -3.553,0.161 l -0.004,-0.004 -3.419,3.418 0.023,0.023 c -0.773,0.983 -0.77,2.365 0.01,3.345 l -0.022,0.022 0.216,0.216 c 0,0 0,0 0,0 l 0,0 1.707,1.708 0.031,-0.031 c 0.025,0.026 0.042,0.057 0.067,0.083 14.358,14.358 14.401,37.688 0.138,52.104 l -0.019,-0.019 -1.707,1.707 0,0 c 0,0 0,0 0,0 l -0.216,0.216 0.022,0.022 c -0.836,1.05 -0.787,2.568 0.16,3.553 l -0.004,0.004 3.42,3.42 0.023,-0.023 c 0.983,0.773 2.365,0.769 3.345,-0.011 l 0.022,0.022 0.216,-0.216 0,0 0,0 1.707,-1.707 -0.004,-0.004 C 97.105,64.797 97.061,35.219 78.864,17.021 Z"
         style="fill:#000000;fill-opacity:1" />
      <path
         id="path14340"
         d="M 69.376,30.198 C 69.35,30.172 69.32,30.156 69.294,30.131 l 0.008,-0.008 -1.925,-1.923 -0.022,0.022 c -1.05,-0.836 -2.568,-0.787 -3.554,0.16 l -0.004,-0.004 -0.035,0.035 c -10e-4,0.001 -0.002,0.002 -0.003,0.002 -10e-4,0.001 -0.002,0.002 -0.002,0.003 l -3.149,3.148 c -10e-4,0.001 -0.002,0.002 -0.003,0.002 -10e-4,10e-4 -0.002,0.002 -0.002,0.003 l -0.225,0.225 0.023,0.023 c -0.773,0.984 -0.769,2.365 0.011,3.344 l -0.022,0.022 1.923,1.924 0.031,-0.031 c 0.025,0.026 0.042,0.057 0.067,0.083 7.091,7.091 7.132,18.594 0.135,25.746 L 62.532,62.893 60.825,64.6 c 0,0 0,0 -0.001,0 l -10e-4,0 -0.215,0.215 0.022,0.022 c -0.836,1.05 -0.788,2.569 0.16,3.554 l -0.004,0.004 3.42,3.42 0.023,-0.023 c 0.983,0.773 2.364,0.769 3.344,-0.011 l 0.022,0.022 1.923,-1.923 -0.004,-0.004 C 80.352,58.886 80.308,41.131 69.376,30.198 Z"
         style="fill:#000000;fill-opacity:1" />
      <path
         id="path14342"
         d="m 52.751,23.803 c -0.378,0 -0.727,0.108 -1.031,0.285 l -0.018,-0.032 -20.464,11.815 0,0.012 -7.74,4.469 -14.482,0 0,0.04 c -0.012,0 -0.024,-0.004 -0.037,-0.004 -0.842,0 -1.525,0.684 -1.525,1.525 l 0,20.66 c 0,0.842 0.683,1.524 1.525,1.524 0.013,0 0.024,-0.003 0.037,-0.004 l 0,0.041 14.482,0 11.524,6.653 0,-0.031 16.548,9.555 c 0.336,0.232 0.742,0.372 1.181,0.372 1.143,0 2.071,-0.927 2.071,-2.07 0,-0.081 -0.015,-0.155 -0.024,-0.233 l 0.024,0 0,-52.74 -0.024,0 c -0.117,-1.031 -0.983,-1.837 -2.047,-1.837 z"
         style="fill:#000000;fill-opacity:1" />
    </g>
  </g>
</svg>
