<?xml version="1.0" encoding="UTF-8" standalone="no"?>
<!-- Created with Inkscape (http://www.inkscape.org/) -->

<svg
   xmlns:dc="http://purl.org/dc/elements/1.1/"
   xmlns:cc="http://creativecommons.org/ns#"
   xmlns:rdf="http://www.w3.org/1999/02/22-rdf-syntax-ns#"
   xmlns:svg="http://www.w3.org/2000/svg"
   xmlns="http://www.w3.org/2000/svg"
   version="1.1"
   width="100%"
   height="100%"
   viewBox="0 0 48 48"
   id="Capa_1"
   xml:space="preserve"><metadata
     id="metadata47"><rdf:RDF><cc:Work
         rdf:about=""><dc:format>image/svg+xml</dc:format><dc:type
           rdf:resource="http://purl.org/dc/dcmitype/StillImage" /><dc:title></dc:title></cc:Work></rdf:RDF></metadata><defs
     id="defs45" /><g
     transform="matrix(0.5443348,0,0,0.5443348,6.3459153,1.3000528)"
     id="g3"><path
       d="M 60.093,9.797 H 48.984 V 2.578 C 48.984,1.125 47.812,0 46.359,0 46.218,0 46.124,0.047 46.078,0.094 46.031,0.047 45.937,0 45.89,0 H 19.781 19.594 19.406 C 17.953,0 16.828,1.125 16.828,2.578 V 9.797 H 5.672 C 2.484,9.797 0,12.281 0,15.469 v 4.125 5.156 h 4.922 v 52.827 c 0,3.188 2.437,5.625 5.625,5.625 h 44.671 c 3.188,0 5.672,-2.437 5.672,-5.625 V 24.75 h 4.875 v -5.156 -4.125 c 0,-3.188 -2.485,-5.672 -5.672,-5.672 z M 21.984,5.156 H 43.781 V 9.797 H 21.984 V 5.156 z m 33.703,72.421 c 0,0.329 -0.141,0.469 -0.469,0.469 H 10.547 c -0.328,0 -0.469,-0.14 -0.469,-0.469 V 24.75 H 55.687 V 77.577 z M 60.562,19.594 H 5.203 v -4.125 c 0,-0.328 0.141,-0.516 0.469,-0.516 h 54.421 c 0.328,0 0.469,0.188 0.469,0.516 v 4.125 z"
       id="path5" /><rect
       width="5.2030001"
       height="42.654999"
       x="42.327999"
       y="30.797001"
       id="rect7" /><rect
       width="5.2030001"
       height="42.654999"
       x="30.327999"
       y="30.797001"
       id="rect9" /><rect
       width="5.2030001"
       height="42.654999"
       x="18.327999"
       y="30.797001"
       id="rect11" /></g><g
     transform="translate(0,-35.202)"
     id="g13" /><g
     transform="translate(0,-35.202)"
     id="g15" /><g
     transform="translate(0,-35.202)"
     id="g17" /><g
     transform="translate(0,-35.202)"
     id="g19" /><g
     transform="translate(0,-35.202)"
     id="g21" /><g
     transform="translate(0,-35.202)"
     id="g23" /><g
     transform="translate(0,-35.202)"
     id="g25" /><g
     transform="translate(0,-35.202)"
     id="g27" /><g
     transform="translate(0,-35.202)"
     id="g29" /><g
     transform="translate(0,-35.202)"
     id="g31" /><g
     transform="translate(0,-35.202)"
     id="g33" /><g
     transform="translate(0,-35.202)"
     id="g35" /><g
     transform="translate(0,-35.202)"
     id="g37" /><g
     transform="translate(0,-35.202)"
     id="g39" /><g
     transform="translate(0,-35.202)"
     id="g41" /></svg>