<?xml version="1.0" encoding="UTF-8" standalone="no"?>
<!-- Generator: Adobe Illustrator 16.0.0, SVG Export Plug-In . SVG Version: 6.00 Build 0)  -->

<svg
   xmlns:dc="http://purl.org/dc/elements/1.1/"
   xmlns:cc="http://creativecommons.org/ns#"
   xmlns:rdf="http://www.w3.org/1999/02/22-rdf-syntax-ns#"
   xmlns:svg="http://www.w3.org/2000/svg"
   xmlns="http://www.w3.org/2000/svg"
   xmlns:sodipodi="http://sodipodi.sourceforge.net/DTD/sodipodi-0.dtd"
   xmlns:inkscape="http://www.inkscape.org/namespaces/inkscape"
   version="1.1"
   id="Layer_11"
   x="0px"
   y="0px"
   width="100px"
   height="100px"
   viewBox="0 0 100 100"
   enable-background="new 0 0 100 100"
   xml:space="preserve"
   inkscape:version="0.48.4 r9939"
   sodipodi:docname="hand.svg"><metadata
     id="metadata9"><rdf:RDF><cc:Work
         rdf:about=""><dc:format>image/svg+xml</dc:format><dc:type
           rdf:resource="http://purl.org/dc/dcmitype/StillImage" /><dc:title></dc:title></cc:Work></rdf:RDF></metadata><defs
     id="defs7" /><sodipodi:namedview
     pagecolor="#ffffff"
     bordercolor="#666666"
     borderopacity="1"
     objecttolerance="10"
     gridtolerance="10"
     guidetolerance="10"
     inkscape:pageopacity="0"
     inkscape:pageshadow="2"
     inkscape:window-width="640"
     inkscape:window-height="480"
     id="namedview5"
     showgrid="false"
     inkscape:zoom="1.668772"
     inkscape:cx="35.455818"
     inkscape:cy="48.960196"
     inkscape:window-x="0"
     inkscape:window-y="0"
     inkscape:window-maximized="0"
     inkscape:current-layer="Layer_11" /><path
     d="m 23.120961,10.642945 c -0.943208,0.301335 -1.829681,0.785135 -2.626457,1.470134 -3.187863,2.740646 -3.570466,7.563701 -0.830472,10.750807 l 0.992651,1.138373 c -1.303366,0.188164 -2.536019,0.709199 -3.43763,1.484321 -3.159049,2.715873 -3.864359,7.292633 -1.548108,9.986848 l 3.901772,4.541455 c -1.088311,0.166802 -2.144666,0.628639 -3.03945,1.3979 l -0.365465,0.304956 c -2.549384,2.191735 -2.845892,6.062209 -0.654809,8.610831 L 31.11113,68.464447 c 0.447453,0.535808 0.889651,1.07899 1.363351,1.61465 l 0.648804,0.751919 0.02099,-0.03889 c 2.249536,2.469356 4.688393,4.776609 6.920498,6.020008 2.354448,1.313612 3.929869,1.884674 5.196966,2.327725 1.739707,0.60776 2.80809,0.973922 4.965764,3.081791 l -0.284593,0.248163 c -1.236821,1.063285 -1.35228,2.925742 -0.288357,4.163276 l 4.798739,5.577966 c 1.0632,1.236538 2.935452,1.381572 4.172227,0.318297 l 32.095763,-27.59946 c 1.237573,-1.063936 1.381569,-2.935452 0.318297,-4.172227 l -4.798738,-5.577967 c -1.063911,-1.237489 -2.934693,-1.38222 -4.172227,-0.318297 l -0.284593,0.248163 C 79.592409,48.991775 77.871602,35.142718 65.726929,34.892966 65.179676,34.495708 64.493317,33.900031 63.729274,33.011311 L 45.936563,12.335084 C 43.27871,9.2435259 38.581828,8.8866159 35.491026,11.543817 c -1.163221,1.000037 -1.924427,2.276884 -2.299304,3.655491 l -1.946411,-2.255757 c -2.054995,-2.390326 -5.294726,-3.2046091 -8.12435,-2.300606 z m 0.99077,3.09593 c 1.621673,-0.518235 3.486815,-0.0581 4.66515,1.312516 L 46.683179,35.88936 49.142658,33.75158 37.189178,19.842623 c -1.487667,-1.730424 -1.29156,-4.351006 0.439628,-5.839327 1.730425,-1.487668 4.352311,-1.29004 5.839328,0.439628 l 17.771721,20.715118 c 0.356337,0.414485 0.707061,0.763131 1.043581,1.090531 -6.986564,1.528793 -11.20164,3.922759 -12.494579,7.192644 -1.009378,2.561685 0.04564,4.944984 0.832381,5.948305 3.349375,4.271401 9.820567,2.285776 10.734739,1.976856 4.549672,-1.066441 8.107599,-1.204967 10.881088,-0.806688 l 0.918945,-3.144978 c -3.593061,-0.594358 -7.803973,-0.333026 -12.611158,0.802031 l -0.179645,0.05371 c -0.0512,0.01729 -5.116423,1.744556 -7.179854,-0.886904 -0.0102,-0.01211 -0.938148,-1.26238 -0.359555,-2.730152 0.59206,-1.49783 3.13506,-4.229862 13.609768,-5.862587 0.02147,-0.0034 0.03832,-0.01459 0.05988,-0.0179 8.396992,-0.306209 8.720881,11.39004 12.820144,18.4445 L 52.716923,80.074917 c -2.669452,-2.6464 -4.180128,-3.253761 -6.389624,-4.02602 -1.20828,-0.423722 -2.550584,-0.886286 -4.661435,-2.063808 -2.496108,-1.390957 -5.430142,-4.453748 -7.933826,-7.445749 -0.01017,0.01275 -0.04972,0.0052 -0.05988,0.0179 L 17.921541,48.238633 c -1.040455,-1.210236 -0.895788,-3.032346 0.315209,-4.073454 l 0.386454,-0.343848 c 1.210994,-1.041106 3.032348,-0.895788 4.073454,0.315209 l 7.642116,8.870236 1.971163,-1.698248 0.922299,-0.40619 -1.450085,-1.68657 -13.651727,-15.88012 c -1.105646,-1.286064 -0.530923,-3.895579 1.196468,-5.380639 1.19052,-1.023505 3.741174,-1.150914 4.878765,0.172309 L 35.558175,41.335286 38.026604,39.227447 22.132462,20.756046 c -1.571113,-1.827487 -1.357607,-4.603424 0.469882,-6.174537 0.456682,-0.392615 0.968829,-0.66989 1.509387,-0.842634 z"
     id="path3"
     inkscape:connector-curvature="0" /></svg>